<svg xmlns="http://www.w3.org/2000/svg" width="194.082" height="67.377" viewBox="0 0 194.082 67.377"><g transform="translate(-699 -672)"><g transform="translate(699 672)"><path d="M0,1.591H7.043a43.924,43.924,0,0,1,9.223.624,7.09,7.09,0,0,1,3.655,2.057,6.522,6.522,0,0,1,1.565,3.187,48.329,48.329,0,0,1,.312,6.9V27.032a29.6,29.6,0,0,1-.457,6.517,4.895,4.895,0,0,1-1.6,2.57,6.64,6.64,0,0,1-2.818,1.3,25.577,25.577,0,0,1-5.053.369H0ZM9.414,7.782v23.81q2.035,0,2.5-.814t.469-4.439V12.277a18.85,18.85,0,0,0-.157-3.153,1.5,1.5,0,0,0-.715-1.017,4.635,4.635,0,0,0-2.1-.325" transform="translate(0 -0.828)"/><path d="M66.726,1.59l5.384,36.195H62.49l-.5-6.506H58.617l-.565,6.506h-9.73l4.8-36.195ZM61.739,24.863q-.715-6.149-1.433-15.2-1.437,10.4-1.807,15.2Z" transform="translate(-25.148 -0.827)"/><path d="M110.666,1.589V30.542h5.724v7.242H101.253V1.589Z" transform="translate(-52.694 -0.827)"/><path d="M167.611,1.589l-4.189,36.195H151.669q-1.611-8.341-2.847-18.981-.566,4.562-2.627,18.981H134.512L130.3,1.589h9.144l.995,12.628.962,12.21q.519-9.48,2.6-24.838h9.773q.194,1.587,1.027,11.938l1.04,13.771q.8-13.141,2.627-25.708Z" transform="translate(-67.81 -0.827)"/><path d="M233.19,21.955q0,5.456-.258,7.726a8.658,8.658,0,0,1-5.263,7.032,13.354,13.354,0,0,1-5.366,1.006,13.6,13.6,0,0,1-5.221-.952,8.7,8.7,0,0,1-5.4-6.986,76.335,76.335,0,0,1-.268-7.825V15.763q0-5.456.257-7.726a8.654,8.654,0,0,1,5.263-7.03A13.315,13.315,0,0,1,222.3,0a13.623,13.623,0,0,1,5.221.951,8.709,8.709,0,0,1,5.4,6.986,76.6,76.6,0,0,1,.268,7.825Zm-9.414-11.894a11.215,11.215,0,0,0-.279-3.229,1.112,1.112,0,0,0-1.151-.7,1.283,1.283,0,0,0-1.128.57,8.033,8.033,0,0,0-.392,3.365v16.9a16.633,16.633,0,0,0,.256,3.889,1.121,1.121,0,0,0,1.2.74,1.158,1.158,0,0,0,1.23-.851,17.892,17.892,0,0,0,.268-4.047Z" transform="translate(-110.024 0)"/><path d="M264.137,1.591H270.8a51.007,51.007,0,0,1,9.022.513,6.214,6.214,0,0,1,3.845,2.627q1.486,2.113,1.487,6.741,0,4.224-1.052,5.678t-4.135,1.743a7.07,7.07,0,0,1,3.755,1.856,5.514,5.514,0,0,1,1.2,2.136,33.63,33.63,0,0,1,.235,5.353v9.547h-8.741V25.757a8.318,8.318,0,0,0-.459-3.6q-.46-.7-2.4-.694V37.786h-9.414Zm9.414,6.191v8.049a4.145,4.145,0,0,0,2.224-.436q.637-.436.638-2.828v-1.99a3.016,3.016,0,0,0-.616-2.258,3.5,3.5,0,0,0-2.246-.537" transform="translate(-137.462 -0.828)"/><path d="M332.769,1.589V8.831h-5.59V37.784h-9.41V8.831H312.2V1.589Z" transform="translate(-162.476 -0.827)"/><path d="M381.206,1.589V37.784h-9.412v-15.2h-2.818v15.2h-9.412V1.589h9.412V14.534h2.818V1.589Z" transform="translate(-187.124 -0.827)"/><path d="M19.266,119.08H14.22l-6.4-8.837q-.71.032-1.158.031c-.119,0-.25,0-.388-.008s-.284-.012-.433-.023v5.492a3.861,3.861,0,0,0,.39,2.217,1.988,1.988,0,0,0,1.588.612h.74v.516H.465v-.516h.71a1.9,1.9,0,0,0,1.714-.78,4.382,4.382,0,0,0,.294-2.049V103.528a3.861,3.861,0,0,0-.39-2.217,2.044,2.044,0,0,0-1.618-.614H.465v-.516H7.35a16.378,16.378,0,0,1,4.439.439,5.065,5.065,0,0,1,2.424,1.618,4.2,4.2,0,0,1,1,2.808,4.41,4.41,0,0,1-1.136,3.024,6.43,6.43,0,0,1-3.52,1.812l3.9,5.422a9.694,9.694,0,0,0,2.3,2.48,5.777,5.777,0,0,0,2.508.78ZM5.844,109.366c.176,0,.33,0,.46.008s.237.007.32.007A6.139,6.139,0,0,0,10.7,108.21a3.751,3.751,0,0,0,1.373-2.983,3.888,3.888,0,0,0-1.108-2.878,3.961,3.961,0,0,0-2.934-1.109,12.2,12.2,0,0,0-2.188.266Z" transform="translate(-0.242 -52.136)"/><path d="M45.745,101.212v7.471H49.9a3.376,3.376,0,0,0,2.16-.488,3.134,3.134,0,0,0,.808-2.258h.514v6.579h-.514a7.272,7.272,0,0,0-.39-1.772,1.751,1.751,0,0,0-.823-.767A4.226,4.226,0,0,0,49.9,109.7H45.745v6.23a5.852,5.852,0,0,0,.111,1.527.876.876,0,0,0,.39.431,2.35,2.35,0,0,0,1.059.162H50.51a8.612,8.612,0,0,0,2.328-.224,3.5,3.5,0,0,0,1.395-.877A10.745,10.745,0,0,0,56,114.341h.559l-1.631,4.738H40.364v-.516h.671a2.663,2.663,0,0,0,1.267-.318,1.181,1.181,0,0,0,.608-.671,6.608,6.608,0,0,0,.158-1.825V103.471a4.041,4.041,0,0,0-.363-2.217,2.154,2.154,0,0,0-1.67-.557h-.671v-.517H54.928l.209,4.14h-.544a6.544,6.544,0,0,0-.648-2.051,2.221,2.221,0,0,0-1.053-.847,6.248,6.248,0,0,0-1.964-.211Z" transform="translate(-21.006 -52.136)"/><path d="M90.52,99.283v6.535H90a8.1,8.1,0,0,0-.9-3,4.666,4.666,0,0,0-1.847-1.77,5.092,5.092,0,0,0-2.48-.655,3.368,3.368,0,0,0-2.4.885,2.684,2.684,0,0,0-.947,2.013,2.4,2.4,0,0,0,.6,1.575,15.427,15.427,0,0,0,4.113,2.787,28.341,28.341,0,0,1,3.615,2.181,5.308,5.308,0,0,1,1.492,1.793,4.69,4.69,0,0,1,.524,2.158,4.886,4.886,0,0,1-1.667,3.7,6.028,6.028,0,0,1-4.286,1.556,9.309,9.309,0,0,1-1.548-.126,15.837,15.837,0,0,1-1.789-.509,7.984,7.984,0,0,0-1.721-.439.736.736,0,0,0-.552.209,1.645,1.645,0,0,0-.3.865H79.4v-6.482h.516a9.168,9.168,0,0,0,.975,3.045,4.674,4.674,0,0,0,1.874,1.679,5.783,5.783,0,0,0,2.768.671,3.934,3.934,0,0,0,2.752-.921,2.851,2.851,0,0,0,1.01-2.174,2.952,2.952,0,0,0-.384-1.406,4.2,4.2,0,0,0-1.192-1.326,34.1,34.1,0,0,0-2.968-1.776,29.051,29.051,0,0,1-3.45-2.168,5.835,5.835,0,0,1-1.554-1.783,4.432,4.432,0,0,1-.529-2.147,4.658,4.658,0,0,1,1.561-3.505,5.56,5.56,0,0,1,3.972-1.469,7.96,7.96,0,0,1,3.192.738,3.279,3.279,0,0,0,1.1.348.824.824,0,0,0,.591-.216,1.686,1.686,0,0,0,.371-.87Z" transform="translate(-41.226 -51.669)"/><path d="M126.052,100.18l.207,4.433h-.529a5.389,5.389,0,0,0-.418-1.674,2.785,2.785,0,0,0-1.15-1.19,4,4,0,0,0-1.889-.384h-2.661V115.8a3.852,3.852,0,0,0,.375,2.173,2.086,2.086,0,0,0,1.631.586h.655v.516h-8.015v-.516h.669a1.92,1.92,0,0,0,1.7-.725,4.219,4.219,0,0,0,.307-2.034V101.366h-2.273a6.3,6.3,0,0,0-1.88.2,2.566,2.566,0,0,0-1.241,1.017,4.109,4.109,0,0,0-.612,2.034h-.53l.222-4.433Z" transform="translate(-57.454 -52.136)"/><path d="M155.4,99.283a8.575,8.575,0,0,1,6.377,2.794,9.646,9.646,0,0,1,2.7,6.975,9.933,9.933,0,0,1-2.717,7.151,9.085,9.085,0,0,1-13.136.069,9.945,9.945,0,0,1-2.655-7.177,9.556,9.556,0,0,1,3.066-7.343,9.039,9.039,0,0,1,6.368-2.467m-.264,1.017a4.99,4.99,0,0,0-4.07,1.881q-1.908,2.341-1.908,6.858,0,4.626,1.979,7.12a4.888,4.888,0,0,0,4.013,1.9,5.485,5.485,0,0,0,4.4-2.077q1.737-2.077,1.736-6.55,0-4.851-1.91-7.234a5.152,5.152,0,0,0-4.237-1.894" transform="translate(-75.966 -51.669)"/><path d="M206.677,119.08h-5.046l-6.4-8.837c-.475.021-.86.031-1.158.031-.121,0-.25,0-.39-.008s-.282-.012-.431-.023v5.492a3.848,3.848,0,0,0,.39,2.217,1.988,1.988,0,0,0,1.588.612h.74v.516h-8.1v-.516h.71a1.9,1.9,0,0,0,1.714-.78,4.382,4.382,0,0,0,.294-2.049V103.528a3.861,3.861,0,0,0-.39-2.217,2.044,2.044,0,0,0-1.618-.614h-.71v-.516h6.883a16.384,16.384,0,0,1,4.441.439,5.065,5.065,0,0,1,2.424,1.618,4.2,4.2,0,0,1,1,2.808,4.409,4.409,0,0,1-1.135,3.024,6.43,6.43,0,0,1-3.52,1.812l3.9,5.422a9.727,9.727,0,0,0,2.3,2.48,5.768,5.768,0,0,0,2.508.78Zm-13.421-9.714c.176,0,.33,0,.458.008s.237.007.322.007a6.145,6.145,0,0,0,4.077-1.171,3.754,3.754,0,0,0,1.371-2.983,3.887,3.887,0,0,0-1.107-2.878,3.963,3.963,0,0,0-2.934-1.109,12.185,12.185,0,0,0-2.188.266Z" transform="translate(-97.774 -52.136)"/><path d="M239.852,112.286h-7.316l-1.282,2.982a4.694,4.694,0,0,0-.473,1.644.956.956,0,0,0,.411.761,3.591,3.591,0,0,0,1.776.423v.517h-5.951V118.1a3.2,3.2,0,0,0,1.533-.542,8.529,8.529,0,0,0,1.574-2.718l6.648-15.552h.486L243.841,115a7.114,7.114,0,0,0,1.443,2.459,2.917,2.917,0,0,0,1.8.634v.517H239.63V118.1a2.779,2.779,0,0,0,1.526-.376.967.967,0,0,0,.4-.779A5.748,5.748,0,0,0,241,115Zm-.388-1.032-3.205-7.639-3.289,7.639Z" transform="translate(-118.145 -51.669)"/><path d="M280.389,100.18l.209,4.433h-.529a5.485,5.485,0,0,0-.418-1.674,2.788,2.788,0,0,0-1.151-1.19,3.99,3.99,0,0,0-1.887-.384H273.95V115.8a3.869,3.869,0,0,0,.376,2.173,2.09,2.09,0,0,0,1.631.586h.657v.516H268.6v-.516h.671a1.919,1.919,0,0,0,1.7-.725,4.218,4.218,0,0,0,.307-2.034V101.366H269a6.31,6.31,0,0,0-1.88.2,2.569,2.569,0,0,0-1.241,1.017,4.114,4.114,0,0,0-.612,2.034h-.53l.223-4.433Z" transform="translate(-137.774 -52.136)"/><path d="M308.869,118.562v.516h-8.1v-.516h.671a2.017,2.017,0,0,0,1.7-.682,4.258,4.258,0,0,0,.333-2.145V103.526a6.291,6.291,0,0,0-.179-1.9,1.253,1.253,0,0,0-.573-.6,2.626,2.626,0,0,0-1.28-.334h-.671v-.518h8.1v.518h-.682a2,2,0,0,0-1.687.682,4.086,4.086,0,0,0-.348,2.147v12.209a6.258,6.258,0,0,0,.181,1.9,1.257,1.257,0,0,0,.586.6,2.57,2.57,0,0,0,1.267.333Z" transform="translate(-156.527 -52.135)"/><path d="M330.637,99.283a8.573,8.573,0,0,1,6.377,2.794,9.646,9.646,0,0,1,2.7,6.975,9.932,9.932,0,0,1-2.717,7.151,9.085,9.085,0,0,1-13.136.069,9.945,9.945,0,0,1-2.655-7.177,9.556,9.556,0,0,1,3.066-7.343,9.042,9.042,0,0,1,6.368-2.467m-.264,1.017a4.983,4.983,0,0,0-4.068,1.881q-1.911,2.341-1.91,6.858,0,4.626,1.979,7.12a4.89,4.89,0,0,0,4.015,1.9,5.486,5.486,0,0,0,4.4-2.077q1.734-2.077,1.734-6.55,0-4.851-1.91-7.234a5.15,5.15,0,0,0-4.237-1.894" transform="translate(-167.16 -51.669)"/><path d="M361.3,100.18h5.13l11.554,14.176v-10.9a3.758,3.758,0,0,0-.39-2.173,2.075,2.075,0,0,0-1.631-.586h-.655v-.516h6.579v.516h-.67a1.91,1.91,0,0,0-1.7.727,4.187,4.187,0,0,0-.309,2.032v15.933h-.5l-12.458-15.221V115.8a3.858,3.858,0,0,0,.375,2.173,2.086,2.086,0,0,0,1.63.586h.669v.516h-6.578v-.516H363a1.933,1.933,0,0,0,1.715-.725,4.221,4.221,0,0,0,.308-2.034V102.661a8.668,8.668,0,0,0-1.249-1.268,4.651,4.651,0,0,0-1.247-.571,4.464,4.464,0,0,0-1.228-.126Z" transform="translate(-188.028 -52.136)"/><rect width="194.017" height="4.715" transform="translate(0.033 40.902)" fill="#fcc93e"/></g></g></svg>