<svg xmlns="http://www.w3.org/2000/svg" width="260" height="83" viewBox="0 0 260 83"><g transform="translate(-958 -630)"><g transform="translate(288 319)"><path d="M0,1.591H7.314a45.612,45.612,0,0,1,9.577.648,7.362,7.362,0,0,1,3.8,2.136,6.773,6.773,0,0,1,1.625,3.309,50.186,50.186,0,0,1,.324,7.161V28.009a30.738,30.738,0,0,1-.475,6.768A5.083,5.083,0,0,1,20.5,37.446a6.9,6.9,0,0,1-2.926,1.348,26.56,26.56,0,0,1-5.247.383H0ZM9.775,8.02V32.744q2.113,0,2.6-.846t.487-4.61v-14.6A19.575,19.575,0,0,0,12.7,9.413a1.56,1.56,0,0,0-.743-1.056A4.813,4.813,0,0,0,9.775,8.02" transform="translate(699 323.201)" fill="#fff"/><path d="M67.434,1.59l5.591,37.586H63.034L62.51,32.42h-3.5l-.587,6.756h-10.1L53.308,1.59ZM62.254,25.757q-.743-6.385-1.489-15.787-1.493,10.8-1.876,15.787Z" transform="translate(674.743 323.202)" fill="#fff"/><path d="M111.028,1.589V31.654h5.944v7.52H101.253V1.589Z" transform="translate(648.172 323.202)" fill="#fff"/><path d="M169.045,1.589l-4.35,37.586h-12.2q-1.673-8.662-2.957-19.71-.588,4.738-2.728,19.71H134.674L130.3,1.589h9.5L140.826,14.7l1,12.679q.539-9.844,2.7-25.793h10.148q.2,1.648,1.066,12.4l1.08,14.3q.831-13.646,2.728-26.7Z" transform="translate(633.591 323.202)" fill="#fff"/><path d="M234.027,22.8q0,5.665-.268,8.022a8.99,8.99,0,0,1-5.466,7.3,13.867,13.867,0,0,1-5.573,1.044,14.127,14.127,0,0,1-5.422-.989,9.031,9.031,0,0,1-5.607-7.254,79.271,79.271,0,0,1-.278-8.125v-6.43q0-5.666.266-8.022a8.986,8.986,0,0,1,5.466-7.3A13.826,13.826,0,0,1,222.72,0a14.146,14.146,0,0,1,5.422.988,9.044,9.044,0,0,1,5.606,7.254,79.542,79.542,0,0,1,.278,8.126Zm-9.775-12.351a11.647,11.647,0,0,0-.29-3.354,1.155,1.155,0,0,0-1.2-.732,1.332,1.332,0,0,0-1.171.592q-.41.592-.407,3.494V28a17.272,17.272,0,0,0,.266,4.038,1.164,1.164,0,0,0,1.243.768,1.2,1.2,0,0,0,1.277-.883,18.58,18.58,0,0,0,.278-4.2Z" transform="translate(592.872 324)" fill="#fff"/><path d="M264.137,1.591h6.919a52.967,52.967,0,0,1,9.368.532,6.453,6.453,0,0,1,3.993,2.728q1.543,2.194,1.544,7,0,4.386-1.092,5.9t-4.294,1.81a7.341,7.341,0,0,1,3.9,1.928,5.726,5.726,0,0,1,1.242,2.218,34.919,34.919,0,0,1,.245,5.559v9.914h-9.077V26.686c0-2.012-.161-3.257-.477-3.737s-1.149-.721-2.5-.721V39.177h-9.775Zm9.775,6.429v8.358a4.3,4.3,0,0,0,2.309-.453q.661-.453.663-2.936V10.922a3.132,3.132,0,0,0-.639-2.345,3.637,3.637,0,0,0-2.333-.558" transform="translate(566.405 323.201)" fill="#fff"/><path d="M333.559,1.589v7.52h-5.8V39.175h-9.772V9.109H312.2V1.589Z" transform="translate(542.278 323.202)" fill="#fff"/><path d="M382.038,1.589V39.175h-9.773V23.389h-2.926V39.175h-9.774V1.589h9.774V15.031h2.926V1.589Z" transform="translate(518.502 323.202)" fill="#fff"/><path d="M19.988,119.806h-5.24l-6.642-9.177q-.737.033-1.2.032c-.124,0-.259,0-.4-.008s-.295-.012-.449-.024v5.7a4.009,4.009,0,0,0,.405,2.3,2.065,2.065,0,0,0,1.649.635h.768v.536H.465v-.536H1.2a1.971,1.971,0,0,0,1.78-.81,4.551,4.551,0,0,0,.305-2.127V103.657a4.009,4.009,0,0,0-.405-2.3,2.122,2.122,0,0,0-1.68-.637H.465v-.536H7.614a17.007,17.007,0,0,1,4.61.456,5.26,5.26,0,0,1,2.517,1.68,4.36,4.36,0,0,1,1.036,2.916,4.58,4.58,0,0,1-1.18,3.14,6.677,6.677,0,0,1-3.655,1.882L15,115.885a10.066,10.066,0,0,0,2.388,2.575,6,6,0,0,0,2.6.81ZM6.051,109.719c.183,0,.343,0,.478.008s.246.007.332.007a6.374,6.374,0,0,0,4.234-1.216,3.9,3.9,0,0,0,1.425-3.1,4.038,4.038,0,0,0-1.151-2.989,4.113,4.113,0,0,0-3.046-1.151,12.673,12.673,0,0,0-2.272.276Z" transform="translate(698.767 273.71)" fill="#fff"/><path d="M45.952,101.251v7.758h4.313a3.506,3.506,0,0,0,2.243-.507,3.254,3.254,0,0,0,.839-2.345h.534v6.832h-.534a7.552,7.552,0,0,0-.4-1.84,1.818,1.818,0,0,0-.855-.8,4.389,4.389,0,0,0-1.823-.288H45.952v6.469a6.077,6.077,0,0,0,.115,1.585.909.909,0,0,0,.405.448,2.44,2.44,0,0,0,1.1.168H50.9a8.944,8.944,0,0,0,2.417-.233,3.631,3.631,0,0,0,1.448-.91,11.158,11.158,0,0,0,1.836-2.707h.58l-1.694,4.92H40.364v-.536h.7a2.765,2.765,0,0,0,1.315-.331,1.227,1.227,0,0,0,.631-.7,6.862,6.862,0,0,0,.164-1.9V103.6a4.2,4.2,0,0,0-.376-2.3,2.237,2.237,0,0,0-1.734-.578h-.7v-.537H55.488l.217,4.3H55.14a6.8,6.8,0,0,0-.673-2.129,2.306,2.306,0,0,0-1.093-.88,6.488,6.488,0,0,0-2.04-.219Z" transform="translate(678.738 273.71)" fill="#fff"/><path d="M90.954,99.283v6.786h-.536a8.415,8.415,0,0,0-.934-3.111,4.845,4.845,0,0,0-1.918-1.838,5.288,5.288,0,0,0-2.575-.68,3.5,3.5,0,0,0-2.489.919,2.787,2.787,0,0,0-.984,2.091,2.488,2.488,0,0,0,.621,1.636,16.02,16.02,0,0,0,4.271,2.894,29.428,29.428,0,0,1,3.753,2.265,5.512,5.512,0,0,1,1.549,1.862,4.87,4.87,0,0,1,.544,2.241,5.074,5.074,0,0,1-1.731,3.842,6.259,6.259,0,0,1-4.45,1.616,9.667,9.667,0,0,1-1.607-.13,16.447,16.447,0,0,1-1.858-.529,8.291,8.291,0,0,0-1.787-.456.764.764,0,0,0-.573.217,1.708,1.708,0,0,0-.31.9h-.536v-6.731h.536a9.52,9.52,0,0,0,1.012,3.162,4.854,4.854,0,0,0,1.946,1.743,6.005,6.005,0,0,0,2.874.7,4.085,4.085,0,0,0,2.858-.956,2.961,2.961,0,0,0,1.049-2.258,3.065,3.065,0,0,0-.4-1.46,4.366,4.366,0,0,0-1.238-1.377,35.408,35.408,0,0,0-3.082-1.844,30.167,30.167,0,0,1-3.582-2.252,6.059,6.059,0,0,1-1.614-1.852,4.6,4.6,0,0,1-.549-2.229,4.837,4.837,0,0,1,1.621-3.64,5.774,5.774,0,0,1,4.125-1.526,8.266,8.266,0,0,1,3.315.766,3.405,3.405,0,0,0,1.142.361.856.856,0,0,0,.614-.224,1.751,1.751,0,0,0,.385-.9Z" transform="translate(659.234 274.161)" fill="#fff"/><path d="M126.653,100.18l.215,4.6h-.549a5.6,5.6,0,0,0-.434-1.738,2.891,2.891,0,0,0-1.194-1.236,4.151,4.151,0,0,0-1.961-.4h-2.763V116.4a4,4,0,0,0,.39,2.256,2.166,2.166,0,0,0,1.693.609h.68v.535h-8.323v-.535h.7a1.994,1.994,0,0,0,1.766-.753,4.381,4.381,0,0,0,.319-2.112V101.411h-2.36a6.544,6.544,0,0,0-1.953.2,2.665,2.665,0,0,0-1.288,1.056,4.267,4.267,0,0,0-.636,2.113H110.4l.231-4.6Z" transform="translate(643.58 273.71)" fill="#fff"/><path d="M155.767,99.283a8.9,8.9,0,0,1,6.622,2.9,10.017,10.017,0,0,1,2.8,7.243,10.314,10.314,0,0,1-2.821,7.425,9.434,9.434,0,0,1-13.64.071,10.327,10.327,0,0,1-2.757-7.453,9.923,9.923,0,0,1,3.184-7.625,9.386,9.386,0,0,1,6.613-2.562m-.274,1.056a5.181,5.181,0,0,0-4.227,1.953q-1.981,2.431-1.982,7.122,0,4.8,2.055,7.393a5.076,5.076,0,0,0,4.167,1.968,5.7,5.7,0,0,0,4.567-2.156q1.8-2.157,1.8-6.8,0-5.038-1.984-7.512a5.35,5.35,0,0,0-4.4-1.967" transform="translate(625.724 274.161)" fill="#fff"/><path d="M207.4,119.806h-5.24l-6.642-9.177c-.494.022-.893.032-1.2.032-.125,0-.259,0-.4-.008s-.293-.012-.448-.024v5.7a4,4,0,0,0,.405,2.3,2.065,2.065,0,0,0,1.649.635h.768v.536h-8.409v-.536h.738a1.971,1.971,0,0,0,1.78-.81,4.551,4.551,0,0,0,.305-2.127V103.657a4.009,4.009,0,0,0-.405-2.3,2.122,2.122,0,0,0-1.68-.637h-.738v-.536h7.147a17.014,17.014,0,0,1,4.612.456,5.26,5.26,0,0,1,2.517,1.68,4.359,4.359,0,0,1,1.034,2.916,4.578,4.578,0,0,1-1.178,3.14,6.677,6.677,0,0,1-3.655,1.882l4.052,5.63a10.1,10.1,0,0,0,2.39,2.575,5.99,5.99,0,0,0,2.6.81Zm-13.937-10.087c.183,0,.343,0,.476.008s.246.007.334.007a6.381,6.381,0,0,0,4.234-1.216,3.9,3.9,0,0,0,1.424-3.1,4.037,4.037,0,0,0-1.149-2.989,4.115,4.115,0,0,0-3.046-1.151,12.653,12.653,0,0,0-2.272.276Z" transform="translate(604.688 273.71)" fill="#fff"/><path d="M240.345,112.786h-7.6l-1.331,3.1a4.875,4.875,0,0,0-.492,1.707.993.993,0,0,0,.427.79,3.729,3.729,0,0,0,1.845.439v.537h-6.18v-.537a3.327,3.327,0,0,0,1.592-.563,8.856,8.856,0,0,0,1.634-2.823l6.9-16.15h.5l6.834,16.324a7.387,7.387,0,0,0,1.5,2.553,3.029,3.029,0,0,0,1.872.658v.537h-7.743v-.537a2.886,2.886,0,0,0,1.585-.39,1,1,0,0,0,.412-.809,5.969,5.969,0,0,0-.578-2.012Zm-.4-1.071-3.328-7.932-3.416,7.932Z" transform="translate(585.039 274.161)" fill="#fff"/><path d="M280.99,100.18l.217,4.6h-.549a5.7,5.7,0,0,0-.434-1.738,2.9,2.9,0,0,0-1.2-1.236,4.143,4.143,0,0,0-1.96-.4H274.3V116.4a4.018,4.018,0,0,0,.39,2.256,2.17,2.17,0,0,0,1.693.609h.682v.535h-8.324v-.535h.7a1.993,1.993,0,0,0,1.765-.753,4.381,4.381,0,0,0,.319-2.112V101.411h-2.36a6.553,6.553,0,0,0-1.953.2,2.668,2.668,0,0,0-1.289,1.056,4.272,4.272,0,0,0-.635,2.113h-.551l.232-4.6Z" transform="translate(566.104 273.71)" fill="#fff"/><path d="M309.18,119.269v.536h-8.409v-.536h.7a2.1,2.1,0,0,0,1.765-.709,4.422,4.422,0,0,0,.346-2.228V103.655a6.534,6.534,0,0,0-.186-1.97,1.3,1.3,0,0,0-.6-.621,2.726,2.726,0,0,0-1.329-.347h-.7v-.538h8.409v.538h-.709a2.079,2.079,0,0,0-1.752.708,4.243,4.243,0,0,0-.361,2.23v12.678a6.5,6.5,0,0,0,.188,1.968,1.306,1.306,0,0,0,.609.623,2.669,2.669,0,0,0,1.316.346Z" transform="translate(548.015 273.711)" fill="#fff"/><path d="M331,99.283a8.9,8.9,0,0,1,6.622,2.9,10.017,10.017,0,0,1,2.8,7.243,10.314,10.314,0,0,1-2.821,7.425,9.434,9.434,0,0,1-13.64.071,10.327,10.327,0,0,1-2.757-7.453,9.923,9.923,0,0,1,3.184-7.625A9.389,9.389,0,0,1,331,99.283m-.274,1.056a5.175,5.175,0,0,0-4.225,1.953q-1.984,2.431-1.984,7.122,0,4.8,2.055,7.393a5.077,5.077,0,0,0,4.169,1.968,5.7,5.7,0,0,0,4.567-2.156q1.8-2.157,1.8-6.8,0-5.038-1.984-7.512a5.348,5.348,0,0,0-4.4-1.967" transform="translate(537.759 274.161)" fill="#fff"/><path d="M361.3,100.18h5.327l12,14.721v-11.32a3.9,3.9,0,0,0-.405-2.256,2.154,2.154,0,0,0-1.694-.609h-.68v-.536h6.832v.536h-.7a1.983,1.983,0,0,0-1.764.754,4.348,4.348,0,0,0-.321,2.111v16.545h-.52L366.441,104.32V116.4a4.006,4.006,0,0,0,.389,2.256,2.166,2.166,0,0,0,1.692.609h.7v.535h-6.831v-.535h.68a2.007,2.007,0,0,0,1.78-.753,4.383,4.383,0,0,0,.32-2.112V102.757a9,9,0,0,0-1.3-1.317,4.829,4.829,0,0,0-1.3-.593,4.635,4.635,0,0,0-1.275-.13Z" transform="translate(517.63 273.71)" fill="#fff"/><rect width="201.472" height="4.896" transform="translate(699.034 366.474)" fill="#fcc93e"/></g><rect width="260" height="83" transform="translate(958 630)" fill="none"/></g></svg>